<svg version="1.1" xmlns="http://www.w3.org/2000/svg" xmlns:xlink="http://www.w3.org/1999/xlink" width="262.84329" height="265.02431" viewBox="0,0,262.84329,265.02431"><defs><linearGradient x1="232.26021" y1="70.51611" x2="232.26021" y2="312.51611" gradientUnits="userSpaceOnUse" id="color-1"><stop offset="0" stop-color="#00edff"/><stop offset="1" stop-color="#00edff" stop-opacity="0"/></linearGradient><linearGradient x1="250.93766" y1="68.96907" x2="250.93766" y2="310.96907" gradientUnits="userSpaceOnUse" id="color-2"><stop offset="0" stop-color="#ff009a"/><stop offset="1" stop-color="#ff009a" stop-opacity="0"/></linearGradient></defs><g transform="translate(-108.38959,-47.4918)"><g data-paper-data="{&quot;isPaintingLayer&quot;:true}" fill-rule="nonzero" stroke="none" stroke-width="0" stroke-linecap="round" stroke-linejoin="round" stroke-miterlimit="10" stroke-dasharray="" stroke-dashoffset="0" style="mix-blend-mode: normal"><g fill="#ffffff"><path d="M161.81078,47.7973l84.20799,218.71091l40.27825,-127.25136l66.50671,0.49328l-70.21105,172.2648l-72.57392,0.49328l-101.25164,-264.95922z"/><path d="M180.98485,47.4918l83.71137,217.46937l40.27825,-125.76151l66.25841,0.49328l-69.96274,170.77495l-72.57392,0.49328l-100.25841,-263.46937z"/></g><path d="M161.43325,47.8052l84.20799,218.71091l40.27825,-127.25136l66.50671,0.49328l-70.21105,172.2648l-72.57392,0.49328l-101.25164,-264.95922z" fill="url(#color-1)"/><path d="M180.60732,47.4997l83.71137,217.46937l40.27825,-125.76151l66.25841,0.49328l-69.96274,170.77495l-72.57392,0.49328l-100.25841,-263.46937z" fill="url(#color-2)"/></g></g></svg>